<svg width="153" height="68" viewBox="0 0 153 68" fill="none" xmlns="http://www.w3.org/2000/svg">
<g filter="url(#filter0_d_41_2)">
<rect x="8" y="8" width="128.837" height="52" rx="26" fill="#87D29C"/>
</g>
<path d="M25.2934 38.2442H37.5784V39.2792H25.2934V38.2442ZM30.7834 35.3342H32.0284V38.6792H30.7834V35.3342ZM26.7784 28.3892H36.0634V32.4992H28.0534V35.2142H26.8234V31.4942H34.8334V29.3942H26.7784V28.3892ZM26.8234 34.6892H36.3784V35.7092H26.8234V34.6892ZM46.0823 30.6392H49.2173V31.6442H46.0823V30.6392ZM44.7473 28.0442H46.0523C46.0523 31.4492 44.1023 33.7442 39.9323 34.8392L39.4523 33.8642C43.2173 32.9042 44.7473 31.0292 44.7473 28.5842V28.0442ZM40.0823 28.0442H45.5573V29.0342H40.0823V28.0442ZM44.8223 30.3392V31.1942L39.6173 31.5842L39.4223 30.5792L44.8223 30.3392ZM48.9923 27.3842H50.2373V34.3892H48.9923V27.3842ZM41.5073 35.0192H50.2373V38.2892H42.7673V40.3442H41.5523V37.3442H49.0073V36.0092H41.5073V35.0192ZM41.5523 39.7742H50.6873V40.7642H41.5523V39.7742ZM62.0711 27.3692H63.3161V40.9592H62.0711V27.3692ZM63.0161 32.7692H65.5361V33.8192H63.0161V32.7692ZM53.4311 36.6542H54.5111C57.0611 36.6542 58.8311 36.5642 60.8861 36.1742L61.0211 37.2092C58.9061 37.5842 57.1061 37.6892 54.5111 37.6892H53.4311V36.6542ZM53.4011 28.6442H59.5361V33.5042H54.6611V37.0742H53.4311V32.4842H58.3061V29.6642H53.4011V28.6442ZM76.5299 27.3692H77.7749V40.9592H76.5299V27.3692ZM70.6199 28.4192C72.6299 28.4192 74.0699 30.2642 74.0699 33.1442C74.0699 36.0392 72.6299 37.8842 70.6199 37.8842C68.6249 37.8842 67.1849 36.0392 67.1849 33.1442C67.1849 30.2642 68.6249 28.4192 70.6199 28.4192ZM70.6199 29.5442C69.2999 29.5442 68.3699 30.9542 68.3699 33.1442C68.3699 35.3492 69.2999 36.7892 70.6199 36.7892C71.9549 36.7892 72.8699 35.3492 72.8699 33.1442C72.8699 30.9542 71.9549 29.5442 70.6199 29.5442ZM80.4888 38.1692H92.7738V39.2042H80.4888V38.1692ZM81.5538 28.7342H91.6188V29.7542H81.5538V28.7342ZM81.5838 34.4642H91.6038V35.4842H81.5838V34.4642ZM83.6688 29.6792H84.9138V34.5692H83.6688V29.6792ZM88.2888 29.6792H89.5188V34.5692H88.2888V29.6792ZM94.2876 38.2442H106.573V39.2792H94.2876V38.2442ZM99.7776 35.3342H101.023V38.6792H99.7776V35.3342ZM95.7726 28.3892H105.058V32.4992H97.0476V35.2142H95.8176V31.4942H103.828V29.3942H95.7726V28.3892ZM95.8176 34.6892H105.373V35.7092H95.8176V34.6892ZM109.376 28.7342H118.106V29.7692H109.376V28.7342ZM108.086 38.0192H120.341V39.0542H108.086V38.0192ZM112.841 33.1742H114.086V38.5292H112.841V33.1742ZM117.641 28.7342H118.871V30.0842C118.871 31.7642 118.871 33.6242 118.376 36.3692L117.131 36.2042C117.641 33.6092 117.641 31.7042 117.641 30.0842V28.7342Z" fill="#87D29C"/>
<path d="M37.8821 37.185H50.4521V38.805H37.8821V37.185ZM43.1471 34.56H45.1421V37.845H43.1471V34.56ZM39.2921 27.345H49.0421V31.965H41.3021V34.305H39.3221V30.405H47.0621V28.92H39.2921V27.345ZM39.3221 33.51H49.3571V35.115H39.3221V33.51ZM58.9259 29.415H61.5959V31.005H58.9259V29.415ZM56.8109 27.045H58.8959C58.8959 30.795 57.0659 32.985 52.6259 34.02L51.9059 32.505C55.7159 31.68 56.8109 30.075 56.8109 28.035V27.045ZM52.6709 27.045H58.2509V28.575H52.6709V27.045ZM57.2159 29.355V30.66L52.2509 31.02L51.9809 29.52L57.2159 29.355ZM61.2959 26.445H63.2909V33.45H61.2959V26.445ZM54.1109 33.99H63.2909V37.77H56.1059V39.48H54.1409V36.33H61.3109V35.535H54.1109V33.99ZM54.1409 38.64H63.5759V40.185H54.1409V38.64ZM77.8464 26.43H79.8264V40.365H77.8464V26.43ZM79.3764 31.68H81.8364V33.33H79.3764V31.68ZM69.5064 35.505H70.6764C73.0314 35.505 74.8614 35.43 76.9014 35.07L77.0964 36.675C74.9964 37.05 73.0914 37.14 70.6764 37.14H69.5064V35.505ZM69.4914 27.615H75.8814V33H71.4864V36.12H69.5064V31.41H73.9014V29.205H69.4914V27.615ZM92.2603 26.43H94.2703V40.365H92.2603V26.43ZM86.7853 27.405C88.8853 27.405 90.4303 29.325 90.4303 32.355C90.4303 35.415 88.8853 37.335 86.7853 37.335C84.6853 37.335 83.1403 35.415 83.1403 32.355C83.1403 29.325 84.6853 27.405 86.7853 27.405ZM86.7853 29.22C85.7503 29.22 85.0453 30.315 85.0453 32.355C85.0453 34.425 85.7503 35.535 86.7853 35.535C87.8203 35.535 88.5103 34.425 88.5103 32.355C88.5103 30.315 87.8203 29.22 86.7853 29.22ZM96.5491 37.095H109.119V38.73H96.5491V37.095ZM97.5091 27.645H108.084V29.235H97.5091V27.645ZM97.5691 33.39H108.039V34.995H97.5691V33.39ZM99.3991 29.115H101.394V33.54H99.3991V29.115ZM104.214 29.115H106.194V33.54H104.214V29.115Z" fill="white"/>
<defs>
<filter id="filter0_d_41_2" x="0" y="0" width="152.837" height="76" filterUnits="userSpaceOnUse" color-interpolation-filters="sRGB">
<feFlood flood-opacity="0" result="BackgroundImageFix"/>
<feColorMatrix in="SourceAlpha" type="matrix" values="0 0 0 0 0 0 0 0 0 0 0 0 0 0 0 0 0 0 127 0" result="hardAlpha"/>
<feMorphology radius="5" operator="erode" in="SourceAlpha" result="effect1_dropShadow_41_2"/>
<feOffset dx="4" dy="4"/>
<feGaussianBlur stdDeviation="8.5"/>
<feComposite in2="hardAlpha" operator="out"/>
<feColorMatrix type="matrix" values="0 0 0 0 0 0 0 0 0 0 0 0 0 0 0 0 0 0 0.25 0"/>
<feBlend mode="normal" in2="BackgroundImageFix" result="effect1_dropShadow_41_2"/>
<feBlend mode="normal" in="SourceGraphic" in2="effect1_dropShadow_41_2" result="shape"/>
</filter>
</defs>
</svg>
